<?xml version="1.0" encoding="UTF-8" standalone="no"?>
<svg
   version="1.1"
   id="Layer_1"
   x="0px"
   y="0px"
   width="100%"
   viewBox="0 0 2100 694"
   enable-background="new 0 0 2100 694"
   xml:space="preserve"
   sodipodi:docname="logo_ucu_vector_blanco.svg"
   inkscape:version="1.2.2 (b0a8486541, 2022-12-01)"
   xmlns:inkscape="http://www.inkscape.org/namespaces/inkscape"
   xmlns:sodipodi="http://sodipodi.sourceforge.net/DTD/sodipodi-0.dtd"
   xmlns:xlink="http://www.w3.org/1999/xlink"
   xmlns="http://www.w3.org/2000/svg"
   xmlns:svg="http://www.w3.org/2000/svg"><defs
   id="defs22785"><linearGradient
     id="linearGradient23841"
     inkscape:swatch="solid"><stop
       style="stop-color:#ffffff;stop-opacity:1;"
       offset="0"
       id="stop23839" /></linearGradient><linearGradient
     inkscape:collect="always"
     xlink:href="#linearGradient23841"
     id="linearGradient23843"
     x1="751.85919"
     y1="351.91018"
     x2="1144.0818"
     y2="351.91018"
     gradientUnits="userSpaceOnUse" /><linearGradient
     inkscape:collect="always"
     xlink:href="#linearGradient23841"
     id="linearGradient23845"
     x1="31.923436"
     y1="347.95284"
     x2="594.15649"
     y2="347.95284"
     gradientUnits="userSpaceOnUse" /><linearGradient
     inkscape:collect="always"
     xlink:href="#linearGradient23841"
     id="linearGradient23847"
     x1="179.87616"
     y1="581.14157"
     x2="445.28995"
     y2="581.14157"
     gradientUnits="userSpaceOnUse" /><linearGradient
     inkscape:collect="always"
     xlink:href="#linearGradient23841"
     id="linearGradient23849"
     x1="125.43649"
     y1="493.05347"
     x2="500.90915"
     y2="493.05347"
     gradientUnits="userSpaceOnUse" /><linearGradient
     inkscape:collect="always"
     xlink:href="#linearGradient23841"
     id="linearGradient23851"
     x1="122.19302"
     y1="373.71072"
     x2="502.5962"
     y2="373.71072"
     gradientUnits="userSpaceOnUse" /><linearGradient
     inkscape:collect="always"
     xlink:href="#linearGradient23841"
     id="linearGradient23853"
     x1="255.93078"
     y1="189.48331"
     x2="369.0697"
     y2="189.48331"
     gradientUnits="userSpaceOnUse" /><linearGradient
     inkscape:collect="always"
     xlink:href="#linearGradient23841"
     id="linearGradient23855"
     x1="1217.9522"
     y1="347.95241"
     x2="1608.0396"
     y2="347.95241"
     gradientUnits="userSpaceOnUse" /><linearGradient
     inkscape:collect="always"
     xlink:href="#linearGradient23841"
     id="linearGradient23857"
     x1="1678.9746"
     y1="351.6114"
     x2="2070.0845"
     y2="351.6114"
     gradientUnits="userSpaceOnUse" /></defs><sodipodi:namedview
   id="namedview22783"
   pagecolor="#505050"
   bordercolor="#eeeeee"
   borderopacity="1"
   inkscape:showpageshadow="0"
   inkscape:pageopacity="0"
   inkscape:pagecheckerboard="0"
   inkscape:deskcolor="#505050"
   showgrid="false"
   inkscape:zoom="0.19968201"
   inkscape:cx="1354.6538"
   inkscape:cy="458.22855"
   inkscape:window-width="1322"
   inkscape:window-height="694"
   inkscape:window-x="0"
   inkscape:window-y="0"
   inkscape:window-maximized="1"
   inkscape:current-layer="Layer_1" />

<path
   fill="#0B2E66"
   opacity="1.000000"
   stroke="none"
   d=" M346.531342,0.999996   C347.977753,1.655205 348.895081,2.758740 349.942108,2.899750   C373.222229,6.035090 395.767883,11.855173 417.558655,20.694889   C444.064819,31.447453 468.356995,45.847290 490.515228,63.930477   C512.814880,82.129051 531.961243,103.179245 547.729126,127.227638   C569.582642,160.557495 584.305664,196.801147 589.916809,236.338470   C592.240112,252.709122 593.613586,269.333405 593.820862,285.862366   C594.355835,328.521179 594.131348,371.191711 593.962341,413.856567   C593.799194,455.055634 585.431702,494.484070 568.076721,531.985168   C556.704346,556.558960 542.149231,578.936646 524.307312,599.304199   C492.915527,635.139648 454.943756,661.307007 410.386688,678.055847   C390.582306,685.500183 370.194366,690.460632 349.223175,693.126953   C348.495514,693.219482 347.836334,693.850647 347.072632,694.615356   C324.645782,695.000000 302.291534,695.000000 279.343994,694.629883   C275.441620,693.523132 272.162689,692.587952 268.818817,692.081238   C241.895599,688.001343 216.203766,679.908691 191.640152,668.259766   C170.102249,658.045715 149.823761,645.657715 132.208145,629.570496   C118.765907,617.294556 105.456108,604.633057 93.780365,590.722168   C77.977043,571.893372 65.321045,550.825745 55.483929,528.115723   C41.218708,495.183044 32.392979,461.006409 32.097420,425.039856   C31.703167,377.062988 32.130920,329.079926 31.932943,281.100647   C31.858019,262.942657 33.408466,245.046967 36.861263,227.203323   C47.201359,173.767014 71.805695,127.730011 108.585701,88.021736   C122.840424,72.632103 139.089172,59.434544 156.516937,47.768063   C190.806763,24.813784 228.367020,10.187238 269.169403,3.864187   C272.513885,3.345897 275.726257,1.974825 279.000000,0.999999   C301.354218,1.000000 323.708466,1.000000 346.531342,0.999996  M487.990601,139.550278   C486.953949,138.466873 485.856995,137.434570 484.889557,136.292557   C465.890289,113.864212 443.601135,95.458069 417.520355,81.849045   C393.339569,69.231438 367.753326,61.146374 340.568970,57.738922   C322.958588,55.531536 305.393188,55.211742 287.902130,57.236794   C266.271851,59.741077 245.279572,65.110977 225.139252,73.764206   C201.119995,84.084015 179.301376,97.772446 160.137955,115.474731   C138.331924,135.618118 120.976952,159.108383 108.374855,186.113312   C94.630363,215.566238 87.162460,246.421890 87.041916,278.922974   C86.875015,323.920532 86.658806,368.923187 87.191681,413.915070   C87.369598,428.936798 88.495834,444.188171 91.421730,458.890167   C99.420898,499.084259 117.359695,534.739807 144.862198,565.175232   C165.547043,588.066040 189.877457,606.289124 218.153229,619.127747   C254.257034,635.520752 291.845703,642.577576 331.478760,639.149475   C352.969269,637.290649 373.676331,632.621216 393.778442,624.941833   C418.697021,615.422607 441.274261,601.874573 461.112274,584.167908   C478.768555,568.408508 494.308563,550.656616 506.338501,530.076416   C526.229187,496.048462 537.839417,459.609558 537.965698,419.949829   C538.112793,373.785522 538.125122,327.619812 537.908142,281.456024   C537.856750,270.530029 537.264832,259.530182 535.856140,248.702927   C533.014099,226.858047 526.333984,206.058243 517.050720,186.076813   C509.384491,169.575912 499.493988,154.481903 487.990601,139.550278  z"
   id="path22762"
   style="fill-opacity:1;fill:url(#linearGradient23845)" />

<path
   fill="#0B2E66"
   opacity="1.000000"
   stroke="none"
   d=" M1038.000000,202.000000   C1038.000488,171.672516 1037.995239,141.845016 1038.005493,112.017532   C1038.007812,105.040024 1038.032104,105.009552 1044.744019,105.006966   C1075.571289,104.995094 1106.398682,104.995270 1137.225952,105.006775   C1143.949951,105.009285 1143.990845,105.038857 1143.991455,111.487617   C1144.000122,212.801102 1144.266846,314.115723 1143.840698,415.427399   C1143.704834,447.741730 1137.689819,479.033661 1122.073608,507.977386   C1107.227661,535.493713 1086.051025,556.573669 1059.017456,572.000732   C1034.883179,585.773193 1008.691467,593.374573 981.345276,596.703064   C966.885437,598.463074 952.158447,599.253052 937.606873,598.783020   C905.790344,597.755249 874.564209,592.865784 845.129333,579.872498   C830.476379,573.404419 817.082336,564.912659 804.878845,554.450134   C777.014404,530.560913 762.157715,499.510834 755.400757,464.210266   C753.292603,453.196747 752.167725,441.822418 752.142090,430.609741   C751.902405,325.797485 752.000000,220.984467 752.000122,116.171669   C752.000122,114.505333 752.179077,112.816444 751.970032,111.176910   C751.362976,106.415413 753.228271,104.866882 758.089966,104.904564   C784.749756,105.111252 811.412048,105.000076 838.073486,105.000977   C843.572388,105.001160 849.073730,105.116112 854.569153,104.981209   C857.738403,104.903397 859.218567,106.072388 859.003052,109.334633   C858.871582,111.325005 858.999023,113.332054 858.999023,115.331612   C859.000183,216.978363 858.876709,318.625397 859.103577,420.271637   C859.149353,440.801941 864.827332,460.095947 877.468750,476.534973   C888.822144,491.299103 904.393860,500.041107 922.551880,503.895813   C947.171753,509.122375 971.445923,508.098358 994.565369,497.509979   C1007.339233,491.659760 1017.444031,482.257080 1024.520874,469.927094   C1034.109497,453.220856 1037.881348,434.940247 1037.928833,415.955811   C1038.106812,344.804260 1038.000000,273.652008 1038.000000,202.000000  z"
   id="path22766"
   style="fill-opacity:1;fill:url(#linearGradient23843)" />
<path
   fill="#0B2E66"
   opacity="1.000000"
   stroke="none"
   d=" M1889.247192,598.026611   C1878.683838,598.042664 1868.559082,598.560486 1858.507080,597.925781   C1845.299438,597.091797 1832.018921,596.102051 1819.000610,593.846985   C1789.190430,588.683411 1761.575806,578.028137 1737.487915,559.098022   C1705.531982,533.984680 1688.304199,500.506287 1682.129028,461.059326   C1679.984253,447.358978 1679.163452,433.325287 1679.130615,419.440552   C1678.889038,317.294128 1678.999390,215.146851 1679.002075,112.999847   C1679.002197,105.016380 1679.013428,105.004120 1686.761353,105.002754   C1716.922241,104.997437 1747.083130,104.997421 1777.244019,105.002769   C1784.986572,105.004143 1784.997803,105.016472 1784.998047,113.005211   C1785.000732,210.153168 1784.836182,307.301666 1785.149536,404.448608   C1785.206543,422.134155 1786.333130,439.887665 1793.248779,456.726959   C1802.627319,479.562805 1818.828369,494.876831 1842.422241,501.901062   C1868.012939,509.519745 1893.523804,508.966888 1918.391479,498.768982   C1937.036743,491.122772 1949.574219,477.281464 1956.968140,458.642853   C1962.547852,444.577881 1964.910889,429.853271 1964.930908,414.862732   C1965.063965,315.048798 1964.999756,215.234589 1965.000854,115.420471   C1965.000854,113.420898 1965.122925,111.414352 1964.995728,109.423355   C1964.792725,106.245636 1966.092285,104.975090 1969.341187,104.981979   C2001.501465,105.050148 2033.661865,105.043106 2065.822266,104.995506   C2068.758545,104.991165 2070.162354,106.055290 2069.994873,109.086533   C2069.884766,111.079491 2069.998779,113.084373 2069.998779,115.083923   C2070.000000,218.730637 2070.268066,322.378418 2069.850098,426.023468   C2069.709229,460.965363 2059.923096,493.508423 2040.123535,522.602539   C2025.490967,544.104065 2006.505249,560.802917 1983.596191,573.269165   C1959.930298,586.147278 1934.533936,593.140503 1908.090088,596.847412   C1902.030640,597.696838 1895.845459,597.650024 1889.247192,598.026611  z"
   id="path22768"
   style="fill-opacity:1;fill:url(#linearGradient23857)" />
<path
   fill="#0B2E66"
   opacity="1.000000"
   stroke="none"
   d=" M1218.000000,422.999756   C1218.000000,371.668274 1217.861084,320.836212 1218.056885,270.005432   C1218.159302,243.397263 1224.122803,217.978668 1236.008423,194.158600   C1251.133545,163.845932 1274.216919,141.201569 1303.653564,124.593178   C1328.335693,110.667236 1354.959351,102.983200 1382.751953,99.274231   C1395.706543,97.545433 1408.941406,96.774734 1421.999268,97.179596   C1457.834839,98.290680 1492.449585,105.226898 1524.617310,121.872147   C1540.336182,130.005875 1554.840698,139.984894 1567.119507,152.745316   C1588.933716,175.415405 1602.442993,202.350983 1605.930664,233.776703   C1607.337158,246.450684 1607.296997,259.282684 1608.018799,272.036865   C1608.222290,275.633087 1606.955566,277.058380 1603.197388,277.045502   C1572.698853,276.940857 1542.199585,276.935577 1511.701172,277.048035   C1507.816772,277.062347 1506.821411,275.431458 1506.977539,271.935883   C1507.579346,258.455750 1505.562744,245.386963 1499.560669,233.221832   C1490.350342,214.554382 1475.204224,202.355591 1456.000244,195.182739   C1425.283203,183.709610 1394.882935,185.306015 1365.865234,200.260483   C1341.462769,212.836426 1327.567627,233.559387 1325.092651,261.119965   C1324.039185,272.850006 1324.075928,284.699493 1324.044556,296.495880   C1323.931396,338.994080 1323.842529,381.493622 1324.079834,423.990784   C1324.171387,440.373138 1328.183838,455.791809 1337.714111,469.526123   C1349.281616,486.196472 1365.217896,496.739960 1384.229614,502.809509   C1397.777954,507.134857 1411.837158,509.073792 1426.012207,507.899170   C1456.103027,505.405701 1481.774902,494.645630 1497.545532,467.004791   C1504.627197,454.592468 1507.069214,440.969025 1507.009277,426.805969   C1506.976196,419.014191 1507.016113,419.003510 1514.957031,419.002350   C1543.789307,418.998138 1572.621704,418.993530 1601.453979,419.008392   C1607.958984,419.011749 1607.938110,419.047852 1608.002075,425.717560   C1608.209961,447.373932 1606.936401,468.810120 1600.099243,489.632751   C1594.598511,506.384644 1586.391113,521.571350 1575.268921,535.207581   C1559.854736,554.106262 1540.543091,567.962402 1518.563721,578.094421   C1498.726318,587.238953 1477.937744,593.572510 1456.175293,595.958984   C1442.346191,597.475525 1428.387329,599.093384 1414.526855,598.795105   C1375.460205,597.954468 1337.708862,590.656555 1302.895752,571.915283   C1267.168945,552.682129 1240.879395,524.738586 1227.443237,486.122009   C1223.078979,473.578491 1221.273438,460.063934 1219.134033,446.858063   C1217.895264,439.211395 1218.322510,431.294830 1218.000000,422.999756  z"
   id="path22770"
   style="fill-opacity:1;fill:url(#linearGradient23855)" />

<path
   fill="#0B2E66"
   opacity="1.000000"
   stroke="none"
   d=" M194.319092,383.312256   C216.337006,370.635132 238.041489,358.149933 259.738525,345.651855   C276.406860,336.050446 293.028473,326.366455 309.792877,316.936127   C311.286194,316.096161 314.093048,316.131134 315.594116,316.984070   C338.372314,329.927094 361.028931,343.083923 383.724945,356.171783   C404.412567,368.101471 425.103760,380.025085 445.811401,391.919983   C464.073761,402.410248 482.400055,412.790802 500.557495,423.459137   C501.898224,424.246857 502.579987,426.965118 502.596191,428.794525   C502.602539,429.511902 500.000305,430.510864 498.463715,430.907410   C497.056732,431.270447 495.484894,430.999207 493.985687,430.999207   C373.048767,430.999939 252.111832,430.999939 131.174911,430.999359   C129.675705,430.999359 128.114975,431.252014 126.693817,430.916779   C125.126747,430.547150 123.687790,429.634399 122.193024,428.958221   C123.025452,427.181549 123.371857,424.619812 124.768806,423.754974   C134.210190,417.909943 143.854996,412.391357 153.470154,406.829651   C166.964462,399.024200 180.490158,391.273041 194.319092,383.312256  z"
   id="path22774"
   style="fill-opacity:1;fill:url(#linearGradient23851)" />
<path
   fill="#0B2E66"
   opacity="1.000000"
   stroke="none"
   d=" M473.000000,468.000000   C482.100555,468.000000 490.701111,468.000000 500.909149,468.000000   C497.412689,477.581940 494.741211,486.058014 491.232422,494.172028   C488.143127,501.315948 484.277252,508.147034 480.381714,514.901367   C479.521820,516.392151 477.155243,517.119019 475.358032,517.917725   C474.520935,518.289795 473.386566,517.998352 472.386963,517.998413   C365.924011,517.999207 259.460999,517.970520 152.998199,518.098389   C148.493164,518.103821 145.354874,517.112732 143.514038,512.880005   C137.834595,499.821014 132.076584,486.796051 126.452194,473.713501   C125.825523,472.255859 125.860710,470.513641 125.436485,468.000000   C241.409180,468.000000 356.954590,468.000000 473.000000,468.000000  z"
   id="path22776"
   style="fill-opacity:1;fill:url(#linearGradient23849)" />
<path
   fill="#0B2E66"
   opacity="1.000000"
   stroke="none"
   d=" M426.773804,571.779236   C402.107422,588.972961 375.158966,599.716736 345.790833,603.668884   C329.730011,605.830200 313.541138,606.374084 297.175751,605.308899   C279.291840,604.144958 261.943878,601.123230 245.122025,595.428467   C223.091476,587.970520 203.197235,576.410583 185.142288,561.724182   C184.628571,561.306335 183.993881,561.017395 183.542587,560.546631   C182.434998,559.391174 181.401657,558.164612 179.876160,556.445679   C268.473907,556.445679 356.521179,556.445679 444.568451,556.445679   C444.808960,556.844482 445.049469,557.243286 445.289948,557.642090   C439.211823,562.279175 433.133698,566.916260 426.773804,571.779236  z"
   id="path22778"
   style="fill-opacity:1;fill:url(#linearGradient23847)" />
<path
   fill="#0B2E66"
   opacity="1.000000"
   stroke="none"
   d=" M297.000000,236.942352   C296.998627,228.288467 296.797821,220.117752 297.075195,211.963318   C297.226929,207.503296 295.898621,205.767212 291.197296,205.910400   C281.210052,206.214569 271.204895,205.878769 261.211304,206.050262   C257.423462,206.115280 255.806000,204.979477 255.939392,200.946884   C256.187134,193.457657 256.177277,185.948959 255.939438,178.459000   C255.811157,174.419327 257.086182,172.832916 261.305786,172.931808   C271.296844,173.166000 281.301331,172.831116 291.291962,173.073990   C295.565765,173.177917 297.207550,171.934326 297.083618,167.442993   C296.803406,157.287659 297.166382,147.115326 296.933746,136.957550   C296.838623,132.803925 298.643250,131.868118 302.306488,131.958237   C309.299866,132.130280 316.308655,132.209824 323.295135,131.929749   C327.579803,131.757996 329.210114,133.075378 329.083282,137.561340   C328.800812,147.549850 329.146820,157.555099 328.936981,167.547226   C328.852051,171.590286 330.098328,173.168289 334.311371,173.068024   C344.135681,172.834183 353.971710,173.123688 363.798523,172.948898   C367.600922,172.881241 369.191254,174.045502 369.059937,178.062912   C368.815094,185.552338 368.821259,193.060974 369.061005,200.550812   C369.190643,204.602249 367.892365,206.170593 363.684296,206.067734   C354.026764,205.831650 344.354858,206.174774 334.697968,205.925476   C330.409119,205.814728 328.794128,207.089462 328.916779,211.567169   C329.194946,221.722610 328.889679,231.892761 329.044525,242.053558   C329.099426,245.658142 327.931946,247.156845 324.182648,247.045685   C317.357727,246.843369 310.522308,247.011566 303.691315,246.993362   C297.054077,246.975662 297.053223,246.958145 297.003113,240.431335   C296.995453,239.431702 297.000732,238.431976 297.000000,236.942352  z"
   id="path22780"
   style="fill-opacity:1;fill:url(#linearGradient23853)" />
</svg>
