<?xml version="1.0" encoding="UTF-8" standalone="no"?>
<svg
   xmlns:dc="http://purl.org/dc/elements/1.1/"
   xmlns:cc="http://creativecommons.org/ns#"
   xmlns:rdf="http://www.w3.org/1999/02/22-rdf-syntax-ns#"
   xmlns:svg="http://www.w3.org/2000/svg"
   xmlns="http://www.w3.org/2000/svg"
   xmlns:sodipodi="http://sodipodi.sourceforge.net/DTD/sodipodi-0.dtd"
   xmlns:inkscape="http://www.inkscape.org/namespaces/inkscape"
   version="1.1"
   id="Layer_1"
   x="0px"
   y="0px"
   width="1000.0465"
   height="323.65311"
   viewBox="0 0 1000.0465 323.65309"
   enable-background="new 0 0 258.381 161.154"
   xml:space="preserve"
   inkscape:version="1.0.2-2 (e86c870879, 2021-01-15)"
   sodipodi:docname="Visa_2006.svg"><metadata
   id="metadata23"><rdf:RDF><cc:Work
       rdf:about=""><dc:format>image/svg+xml</dc:format><dc:type
         rdf:resource="http://purl.org/dc/dcmitype/StillImage" /><dc:title /></cc:Work></rdf:RDF></metadata><defs
   id="defs21">
	
	
	
	
	
	
	
</defs><sodipodi:namedview
   pagecolor="#ffffff"
   bordercolor="#666666"
   borderopacity="1"
   objecttolerance="10"
   gridtolerance="10"
   guidetolerance="10"
   inkscape:pageopacity="0"
   inkscape:pageshadow="2"
   inkscape:window-width="1366"
   inkscape:window-height="705"
   id="namedview19"
   showgrid="false"
   inkscape:zoom="0.5"
   inkscape:cx="484.42846"
   inkscape:cy="244.3707"
   inkscape:window-x="-8"
   inkscape:window-y="-8"
   inkscape:window-maximized="1"
   inkscape:current-layer="layer1"
   inkscape:document-rotation="0"
   inkscape:object-paths="false" />

<g
   inkscape:groupmode="layer"
   id="layer1"
   inkscape:label="Layer 1"
   transform="translate(-9.1820002e-7,1.150097e-4)"><g
     id="g637"><path
       id="path15"
       style="fill:#00579f;stroke:none;stroke-width:4.42996"
       d="M 284.67829,5.6790977 205.34208,219.32293 196.67264,175.99346 C 182.00503,125.9969 136.0043,71.676688 84.669886,44.667203 L 157.339,318.65156 h 85.66663 L 370.34049,5.6790977 Z M 834.69365,207.99108 877.6953,90.335693 902.02909,207.99108 Z M 934.69121,5.6790977 h -62.66183 c -19.3235,0 -33.85185,5.7247143 -42.34159,25.9950233 L 709.3567,318.97938 h 85.00213 l 17.0022,-46.99748 h 104.01111 l 9.66618,46.99748 h 75.00818 z M 727.0234,13.338504 C 711.04452,6.9992267 685.7007,-1.150097e-4 654.36314,-1.150097e-4 c -80.0007,0 -136.10088,42.6623350097 -136.68208,103.6522750097 -0.42885,45.00243 40.33407,69.99494 70.99902,84.9977 31.34125,15.33363 42.12183,25.33997 41.99605,39.00583 -0.19319,20.99069 -25.3261,30.6642 -48.64986,30.6642 -32.34316,0 -49.92922,-4.42695 -76.0093,-16.66552 l -10.66736,-5.00586 -11.33627,70.3301 c 19.00011,8.65615 54.00568,16.3377 90.3491,16.67438 85.00213,0 140.36471,-42.00025 140.99686,-106.9969 0.34688,-35.66541 -21.5154,-62.60213 -67.99993,-85.32552 -28.52794,-13.94553 -45.86023,-24.00257 -45.68621,-38.669147 0.15825,-13.337389 14.67857,-26.624935 46.6608,-26.991765 26.34289,-0.302148 45.8046,5.39428 60.34496,11.99634 l 7.32716,3.326902 z M 403.01146,5.6790977 h 81.00631 L 433.35228,318.98381 h -81.01073 z"
       sodipodi:nodetypes="cccccccccccccccccccccccccccccccccccccccccccc" /><path
       style="fill:#faa61a;stroke:none;stroke-width:4.42996"
       d="M 131.67179,5.6790977 H 1.3334198 L 9.1820002e-7,12.009515 C 101.67208,38.008968 169.00752,100.66637 196.67264,175.99346 L 168.3386,32.015228 C 164.37123,11.855225 149.35082,5.6790977 131.67179,5.6790977 Z"
       id="path17"
       sodipodi:nodetypes="cccccc" /></g></g></svg>
